<?xml version="1.0" encoding="utf-8"?>
<!-- Generator: Adobe Illustrator 23.0.1, SVG Export Plug-In . SVG Version: 6.00 Build 0)  -->
<svg version="1.1" id="Layer_1" xmlns="http://www.w3.org/2000/svg" xmlns:xlink="http://www.w3.org/1999/xlink" x="0px" y="0px"
	 viewBox="0 0 92.3 37" style="enable-background:new 0 0 92.3 37;" xml:space="preserve">
<style type="text/css">
	.st0{fill:#FFFFFF;}
	.st1{fill:#FF9D60;}
</style>
<rect x="2.4" y="5.1" class="st0" width="7.9" height="30.3"/>
<path class="st0" d="M26.3,30.7c-2.8,0-5-2.5-5-6.9c0-4.8,2.1-7.1,5.2-7.1c2.4,0,4.8,1.6,4.8,6.3v1C31.3,28.9,29.2,30.7,26.3,30.7z
	 M39.2,3.1h-7.9V15l-1.5-2.5c-1.2-0.7-3.5-1.1-5.4-1.1c-6,0-11.1,4.5-11.1,12.9c0,6.9,3.9,11.8,10.3,11.8c2.4,0,4.6-0.5,6-1.5
	l1.8-2.6v3.4h7.9C39.2,35.4,39.2,3.1,39.2,3.1z"/>
<path class="st0" d="M51.2,3.1h-7.9v24c0,1.8,0,2.9,0.1,4.2c0.2,3.1,2.2,4.6,5.9,4.6c1.8,0,3.2-0.1,4.6-0.2v-5.4
	c-2.1,0.1-2.5-0.2-2.6-1.1c-0.1-0.6-0.1-1-0.1-2.1V3.1z"/>
<path class="st0" d="M67.2,16.7c2.1,0,3.5,1.4,3.9,4.1h-8C63.7,17.9,65.2,16.7,67.2,16.7z M79.4,23.4c0-6.1-3.9-12-11.8-12
	s-12.5,5.6-12.5,12.4C55.1,32,60.5,36,67.2,36c6,0,10.4-3,11.8-8.3h-7.8c-0.3,1.8-1.7,2.9-3.9,2.9s-4-1.1-4.3-5h16.3
	C79.3,24.9,79.4,24.1,79.4,23.4z"/>
<ellipse class="st1" cx="86.1" cy="31.6" rx="4.4" ry="4.4"/>
</svg>
