<?xml version="1.0" encoding="utf-8"?>
<!-- Generator: Adobe Illustrator 23.0.1, SVG Export Plug-In . SVG Version: 6.00 Build 0)  -->
<svg version="1.1" id="Layer_1" xmlns="http://www.w3.org/2000/svg" xmlns:xlink="http://www.w3.org/1999/xlink" x="0px" y="0px"
	 viewBox="0 0 92.3 37.03" style="enable-background:new 0 0 92.3 37.03;" xml:space="preserve">
<style type="text/css">
	.st0{fill:#FFFFFF;}
</style>
<rect x="2.37" y="5.12" class="st0" width="7.9" height="30.29"/>
<path class="st0" d="M26.29,30.66c-2.77,0-4.96-2.46-4.96-6.85c0-4.78,2.11-7.11,5.18-7.11c2.37,0,4.78,1.58,4.78,6.28v1.01
	C31.29,28.91,29.18,30.66,26.29,30.66z M39.19,3.14h-7.9v11.85l-1.54-2.5c-1.19-0.7-3.47-1.14-5.4-1.14
	c-6.01,0-11.11,4.52-11.11,12.86c0,6.94,3.95,11.81,10.32,11.81c2.37,0,4.65-0.48,5.97-1.45l1.76-2.59v3.42h7.9V3.14z"/>
<path class="st0" d="M51.21,3.14h-7.9v23.97c0,1.76,0,2.94,0.09,4.17c0.18,3.12,2.24,4.57,5.88,4.57c1.76,0,3.16-0.09,4.61-0.22
	v-5.36c-2.06,0.09-2.46-0.22-2.59-1.14c-0.09-0.57-0.09-1.05-0.09-2.15V3.14z"/>
<path class="st0" d="M67.23,16.7c2.11,0,3.47,1.36,3.91,4.13h-7.95C63.72,17.93,65.17,16.7,67.23,16.7z M79.39,23.38
	c0-6.06-3.95-12.03-11.76-12.03s-12.51,5.57-12.51,12.42c0,8.25,5.36,12.25,12.07,12.25c6.01,0,10.4-2.99,11.76-8.3h-7.77
	c-0.31,1.8-1.67,2.94-3.91,2.94s-3.95-1.1-4.35-5h16.33C79.35,24.87,79.39,24.08,79.39,23.38z"/>
<ellipse transform="matrix(0.9732 -0.2298 0.2298 0.9732 -4.9624 20.6385)" class="st0" cx="86.15" cy="31.63" rx="4.39" ry="4.39"/>
</svg>
